<svg  viewBox="0 0 14 19" fill="none" xmlns="http://www.w3.org/2000/svg">
<symbol width="14" height="19" id="phone">
<path fill-rule="evenodd" clip-rule="evenodd" d="M0.399902 2.77913C0.399902 1.78501 1.20579 0.979126 2.1999 0.979126H11.7999C12.794 0.979126 13.5999 1.78501 13.5999 2.77913V17.1791C13.5999 18.1732 12.794 18.9791 11.7999 18.9791H2.1999C1.20579 18.9791 0.399902 18.1732 0.399902 17.1791V2.77913ZM5.1999 15.3791H8.7999V14.1791H5.1999V15.3791Z" fill="white"/>
</symbol>
<symbol width="20" height="22" id="arrow">
<path d="M12.6529 20.3994L13.3857 21.0799L14.7466 19.6143L14.0138 18.9339L12.6529 20.3994ZM4 11L3.31955 10.2672L2.53039 11L3.31955 11.7328L4 11ZM14.0138 3.06611L14.7466 2.38566L13.3857 0.920068L12.6529 1.60052L14.0138 3.06611ZM14.0138 18.9339L4.68045 10.2672L3.31955 11.7328L12.6529 20.3994L14.0138 18.9339ZM4.68045 11.7328L14.0138 3.06611L12.6529 1.60052L3.31955 10.2672L4.68045 11.7328Z" fill="white"/>
</symbol><symbol width="18" height="19" id="message" >
<path fill-rule="evenodd" clip-rule="evenodd" d="M0 2.29919C0 1.30427 0.805414 0.5 1.8 0.5H16.2C17.1946 0.5 18 1.30427 18 2.29919V13.0922C18 14.0871 17.1946 14.8914 16.2 14.8914H9.1999L4.55985 18.3691C4.37802 18.5054 4.13481 18.5273 3.93159 18.4256C3.72836 18.324 3.6 18.1162 3.6 17.889V14.8914H1.8C0.805413 14.8914 0 14.0871 0 13.0922V2.29919ZM4.8 5.29685H13.2V6.49685H4.8V5.29685ZM4.8 8.89451H10.8V10.0945H4.8V8.89451Z" fill="white"/>
</symbol><symbol id="logo">
<path d="M19.1454 35.3648C21.8512 35.3648 24.1031 36.0676 25.901 37.4733C27.6989 38.8968 28.8026 40.8363 29.2121 43.2918L22.857 45C22.7858 43.879 22.3051 42.9804 21.4151 42.3043C20.525 41.6459 19.3857 41.3167 17.9972 41.3167H8.41115C5.93676 41.3167 3.9341 40.6584 2.40319 39.3416C0.872267 38.0427 0.106808 36.3345 0.106808 34.2171C0.106808 32.8292 0.436134 31.5302 1.09478 30.3203C1.75344 29.0925 2.6435 28.1495 3.76499 27.4911C1.255 25.1601 0 22.2509 0 18.7633C0 15.2936 1.2372 12.3932 3.71159 10.0623C6.18598 7.73132 9.26562 6.56584 12.9505 6.56584C15.2291 6.56584 17.3474 7.05516 19.3056 8.03381C19.6616 6.53915 20.4449 5.36477 21.6554 4.51068C22.8837 3.65658 24.379 3.22954 26.1413 3.22954H28.3843V8.91459H26.4617C25.6073 8.91459 24.8863 9.13701 24.2989 9.58185C23.7292 10.0089 23.4088 10.5872 23.3376 11.3167C25.0643 13.4697 25.9277 15.952 25.9277 18.7633C25.9277 22.2153 24.6816 25.1068 22.1894 27.4377C19.6972 29.7687 16.6176 30.9342 12.9505 30.9342C11.0458 30.9342 9.31902 30.6317 7.7703 30.0267C6.77342 30.6851 6.27498 31.5747 6.27498 32.6957C6.27498 33.4786 6.57761 34.1192 7.18285 34.6174C7.7881 35.1157 8.58026 35.3648 9.55934 35.3648H19.1454ZM12.9505 12.3577C11.0458 12.3577 9.45253 12.9715 8.17083 14.1993C6.90693 15.4093 6.27498 16.9306 6.27498 18.7633C6.27498 20.5783 6.90693 22.0996 8.17083 23.3274C9.45253 24.5374 11.0458 25.1423 12.9505 25.1423C14.8374 25.1423 16.4129 24.5285 17.6768 23.3007C18.9407 22.073 19.5726 20.5605 19.5726 18.7633C19.5726 16.9306 18.9407 15.4093 17.6768 14.1993C16.4129 12.9715 14.8374 12.3577 12.9505 12.3577Z" fill="white"/>
<path d="M53.9382 7.2331H60.0796V35.0979H53.9382V31.0943C51.4816 34.2082 48.2239 35.7651 44.1652 35.7651C41.584 35.7651 39.2431 35.1335 37.1426 33.8701C35.042 32.589 33.3954 30.8363 32.2027 28.6121C31.0278 26.3879 30.4404 23.9057 30.4404 21.1655C30.4404 18.4253 31.0278 15.9431 32.2027 13.7189C33.3954 11.4947 35.042 9.75089 37.1426 8.48754C39.2431 7.20641 41.584 6.56584 44.1652 6.56584C48.2417 6.56584 51.4994 8.11388 53.9382 11.21V7.2331ZM45.3668 29.8399C47.8234 29.8399 49.8616 29.0125 51.4816 27.3576C53.1193 25.6851 53.9382 23.621 53.9382 21.1655C53.9382 18.6922 53.1193 16.6281 51.4816 14.9733C49.8616 13.3007 47.8234 12.4644 45.3668 12.4644C42.8924 12.4644 40.8275 13.3007 39.1719 14.9733C37.5342 16.6281 36.7153 18.6922 36.7153 21.1655C36.7153 23.621 37.5342 25.6851 39.1719 27.3576C40.8275 29.0125 42.8924 29.8399 45.3668 29.8399Z" fill="white"/>
<path d="M82.1889 6.77936H83.2303V13.0783H82.1889C79.4831 13.0783 77.3559 13.8434 75.8072 15.3737C74.2762 16.8861 73.5108 18.9413 73.5108 21.5391V35.0979H67.3693V7.2331H73.5108V11.3167C75.7359 8.29181 78.6287 6.77936 82.1889 6.77936Z" fill="white"/>
<path d="M108.731 7.2331H114.872V35.0979H108.731V31.0943C106.274 34.2082 103.017 35.7651 98.9578 35.7651C96.3766 35.7651 94.0358 35.1335 91.9352 33.8701C89.8346 32.589 88.188 30.8363 86.9953 28.6121C85.8204 26.3879 85.233 23.9057 85.233 21.1655C85.233 18.4253 85.8204 15.9431 86.9953 13.7189C88.188 11.4947 89.8346 9.75089 91.9352 8.48754C94.0358 7.20641 96.3766 6.56584 98.9578 6.56584C103.034 6.56584 106.292 8.11388 108.731 11.21V7.2331ZM100.159 29.8399C102.616 29.8399 104.654 29.0125 106.274 27.3576C107.912 25.6851 108.731 23.621 108.731 21.1655C108.731 18.6922 107.912 16.6281 106.274 14.9733C104.654 13.3007 102.616 12.4644 100.159 12.4644C97.685 12.4644 95.6201 13.3007 93.9646 14.9733C92.3268 16.6281 91.508 18.6922 91.508 21.1655C91.508 23.621 92.3268 25.6851 93.9646 27.3576C95.6201 29.0125 97.685 29.8399 100.159 29.8399Z" fill="white"/>
<path d="M137.703 6.56584C141.014 6.56584 143.675 7.57117 145.686 9.58185C147.716 11.5925 148.73 14.2527 148.73 17.5623V35.0979H142.616V19.5641C142.616 17.4288 141.984 15.7117 140.72 14.4128C139.456 13.1139 137.774 12.4644 135.673 12.4644C133.466 12.4644 131.686 13.1228 130.333 14.4395C128.98 15.7562 128.303 17.5 128.303 19.6708V35.0979H122.162V7.2331H128.303V10.8363C130.6 7.98932 133.733 6.56584 137.703 6.56584Z" fill="white"/>
<path d="M171 12.7847H163.123V25.9698C163.123 27.2509 163.47 28.2206 164.164 28.879C164.876 29.5196 165.882 29.8399 167.182 29.8399C168.41 29.8399 169.683 29.5196 171 28.879V34.6174C169.487 35.3826 167.787 35.7651 165.9 35.7651C162.963 35.7651 160.746 34.9911 159.251 33.4431C157.756 31.895 157.008 29.7331 157.008 26.9573V12.7847H152.282V7.2331H157.008V0H163.123V7.2331H171V12.7847Z" fill="white"/>
</symbol>
</svg>