<svg viewBox="0 0 14 19" fill="none" xmlns="http://www.w3.org/2000/svg"><symbol width="25" height="24">
<path d="M12.5 9C10.874 9 9.5 10.374 9.5 12C9.5 13.626 10.874 15 12.5 15C14.126 15 15.5 13.626 15.5 12C15.5 10.374 14.126 9 12.5 9Z" fill="#B081EB"/>
<path d="M20.5 5H17.914L15.207 2.293C15.1143 2.19996 15.0041 2.12617 14.8828 2.07589C14.7614 2.0256 14.6313 1.99981 14.5 2H10.5C10.3687 1.99981 10.2386 2.0256 10.1172 2.07589C9.9959 2.12617 9.88571 2.19996 9.793 2.293L7.086 5H4.5C3.397 5 2.5 5.897 2.5 7V18C2.5 19.103 3.397 20 4.5 20H20.5C21.603 20 22.5 19.103 22.5 18V7C22.5 5.897 21.603 5 20.5 5ZM12.5 17C9.79 17 7.5 14.71 7.5 12C7.5 9.29 9.79 7 12.5 7C15.21 7 17.5 9.29 17.5 12C17.5 14.71 15.21 17 12.5 17Z" fill="#B081EB"/>
</symbol><symbol width="19" height="19" id="prize">
<path fill-rule="evenodd" clip-rule="evenodd" d="M5.9 0.5C4.24315 0.5 2.9 1.84315 2.9 3.5V3.84286C2.9 4.3809 3.05992 4.8816 3.33482 5.3H2.3C1.30589 5.3 0.5 6.10589 0.5 7.1V8.3C0.5 9.29411 1.30589 10.1 2.3 10.1H8.9V5.3H10.1V10.1H16.7C17.6941 10.1 18.5 9.29411 18.5 8.3V7.1C18.5 6.10589 17.6941 5.3 16.7 5.3H15.6652C15.9401 4.8816 16.1 4.3809 16.1 3.84286V3.5C16.1 1.84315 14.7569 0.5 13.1 0.5C11.5722 0.5 10.2349 1.31575 9.5 2.53545C8.76506 1.31575 7.4278 0.5 5.9 0.5ZM10.1 5.3H13.4429C14.2476 5.3 14.9 4.64761 14.9 3.84286V3.5C14.9 2.50589 14.0941 1.7 13.1 1.7C11.4431 1.7 10.1 3.04315 10.1 4.7V5.3ZM8.9 5.3H5.55714C4.75239 5.3 4.1 4.64761 4.1 3.84286V3.5C4.1 2.50589 4.90589 1.7 5.9 1.7C7.55685 1.7 8.9 3.04315 8.9 4.7V5.3Z" fill="white"/>
<path d="M8.9 11.3H1.7V15.5C1.7 17.1569 3.04315 18.5 4.7 18.5H8.9V11.3Z" fill="white"/>
<path d="M10.1 18.5H14.3C15.9569 18.5 17.3 17.1569 17.3 15.5V11.3H10.1V18.5Z" fill="white"/>
</symbol><symbol width="12" height="12" id="face-id">
<path fill-rule="evenodd" clip-rule="evenodd" d="M2 0.8C1.33726 0.8 0.8 1.33726 0.8 2V4H0V2C0 0.895431 0.895431 0 2 0H4V0.8H2ZM10 0.8H8V0H10C11.1046 0 12 0.895431 12 2V4H11.2V2C11.2 1.33726 10.6627 0.8 10 0.8ZM4 4.8H3.2V4H4V4.8ZM8.8 4.8H8V4H8.8V4.8ZM3.92 6.96C4.96 8.34667 7.04 8.34667 8.08 6.96L8.72 7.44C7.36 9.25333 4.64 9.25333 3.28 7.44L3.92 6.96ZM0 10V8H0.8V10C0.8 10.6627 1.33726 11.2 2 11.2H4V12H2C0.895431 12 0 11.1046 0 10ZM12 8V10C12 11.1046 11.1046 12 10 12H8V11.2H10C10.6627 11.2 11.2 10.6627 11.2 10V8H12Z" fill="white"/>
</symbol><symbol id="instagram">
<path d="M12.5001 8.83447C10.2064 8.83447 8.33452 10.7063 8.33452 13.0001C8.33452 15.2938 10.2064 17.1657 12.5001 17.1657C14.7939 17.1657 16.6658 15.2938 16.6658 13.0001C16.6658 10.7063 14.7939 8.83447 12.5001 8.83447ZM24.9939 13.0001C24.9939 11.2751 25.0095 9.56572 24.9127 7.84385C24.8158 5.84385 24.3595 4.06885 22.897 2.60635C21.4314 1.14072 19.6595 0.687599 17.6595 0.590724C15.9345 0.493849 14.2251 0.509474 12.5033 0.509474C10.7783 0.509474 9.0689 0.493849 7.34702 0.590724C5.34702 0.687599 3.57202 1.14385 2.10952 2.60635C0.643898 4.07197 0.190773 5.84385 0.0938982 7.84385C-0.00297678 9.56885 0.0126483 11.2782 0.0126483 13.0001C0.0126483 14.722 -0.00297678 16.4345 0.0938982 18.1563C0.190773 20.1563 0.647023 21.9313 2.10952 23.3938C3.57515 24.8595 5.34702 25.3126 7.34702 25.4095C9.07202 25.5063 10.7814 25.4907 12.5033 25.4907C14.2283 25.4907 15.9376 25.5063 17.6595 25.4095C19.6595 25.3126 21.4345 24.8563 22.897 23.3938C24.3627 21.9282 24.8158 20.1563 24.9127 18.1563C25.0127 16.4345 24.9939 14.7251 24.9939 13.0001ZM12.5001 19.4095C8.95327 19.4095 6.09077 16.547 6.09077 13.0001C6.09077 9.45322 8.95327 6.59072 12.5001 6.59072C16.047 6.59072 18.9095 9.45322 18.9095 13.0001C18.9095 16.547 16.047 19.4095 12.5001 19.4095ZM19.172 7.8251C18.3439 7.8251 17.6751 7.15635 17.6751 6.32822C17.6751 5.5001 18.3439 4.83135 19.172 4.83135C20.0002 4.83135 20.6689 5.5001 20.6689 6.32822C20.6691 6.52486 20.6306 6.71962 20.5555 6.90134C20.4803 7.08306 20.3701 7.24818 20.231 7.38722C20.092 7.52627 19.9269 7.63652 19.7451 7.71166C19.5634 7.7868 19.3687 7.82534 19.172 7.8251Z"/>
</symbol><symbol width="25" height="24" id="facebook">
<path fill-rule="evenodd" clip-rule="evenodd" d="M0.5 12.067C0.5 18.033 4.833 22.994 10.5 24V15.333H7.5V12H10.5V9.333C10.5 6.333 12.433 4.667 15.167 4.667C16.033 4.667 16.967 4.8 17.833 4.933V8H16.3C14.833 8 14.5 8.733 14.5 9.667V12H17.7L17.167 15.333H14.5V24C20.167 22.994 24.5 18.034 24.5 12.067C24.5 5.43 19.1 0 12.5 0C5.9 0 0.5 5.43 0.5 12.067Z"/>
</symbol><symbol width="19" height="20" id="deals">
<path d="M13.1441 6.69201C13.0622 6.35615 12.9331 6.06147 12.7567 5.80798C12.5803 5.54816 12.3598 5.32953 12.0952 5.15209C11.8369 4.96831 11.5345 4.83207 11.188 4.74335C10.8478 4.64829 10.4729 4.60076 10.0634 4.60076C9.18141 4.60076 8.42856 4.81305 7.80486 5.23764C7.18746 5.66223 6.71496 6.27376 6.38736 7.07224C6.06606 7.87072 5.90541 8.83397 5.90541 9.96198C5.90541 11.1027 6.05975 12.0786 6.36846 12.8897C6.67716 13.7009 7.13706 14.3219 7.74816 14.7529C8.35926 15.1838 9.11841 15.3992 10.0256 15.3992C10.8257 15.3992 11.4904 15.282 12.0196 15.0475C12.5551 14.8131 12.9551 14.4804 13.2197 14.0494C13.4843 13.6185 13.6166 13.1115 13.6166 12.5285L14.5238 12.6236H10.1012V8.85932H18.6818V11.5589C18.6818 13.3333 18.307 14.8511 17.5573 16.1122C16.8139 17.3669 15.787 18.3302 14.4766 19.0019C13.1725 19.6673 11.6762 20 9.98781 20C8.10411 20 6.45036 19.5976 5.02655 18.7928C3.60275 17.988 2.4908 16.8409 1.6907 15.3517C0.8969 13.8625 0.5 12.0913 0.5 10.038C0.5 8.42839 0.74255 7.00253 1.22765 5.76046C1.71905 4.51838 2.39945 3.46958 3.26885 2.61407C4.13825 1.75222 5.1431 1.10266 6.28341 0.665399C7.42371 0.2218 8.64591 0 9.95001 0C11.0966 0 12.1613 0.164766 13.1441 0.494297C14.1332 0.81749 15.0058 1.2801 15.7618 1.88213C16.5241 2.47782 17.1383 3.18441 17.6045 4.0019C18.0707 4.81939 18.3542 5.7161 18.455 6.69201H13.1441Z"/>
</symbol><symbol width="21" height="18" id="finance">
<path fill-rule="evenodd" clip-rule="evenodd" d="M18.8332 15.6666L18.8332 12.3333H19.4074C19.8267 12.3333 20.1665 11.9934 20.1665 11.5742V6.42566C20.1665 6.00644 19.8267 5.66659 19.4074 5.66659H18.8332V2.33325C18.8332 1.22868 17.9377 0.333252 16.8332 0.333252H2.1665C1.06194 0.333252 0.166504 1.22868 0.166504 2.33325V15.6666C0.166504 16.7712 1.06193 17.6666 2.1665 17.6666H16.8332C17.9377 17.6666 18.8332 16.7712 18.8332 15.6666ZM18.8332 6.99992V10.9999L12.8332 10.9999C11.7286 10.9999 10.8332 10.1045 10.8332 8.99992C10.8332 7.89535 11.7286 6.99992 12.8332 6.99992H18.8332Z"/>
</symbol><symbol width="21" height="20" id="invest">
<path d="M20.4916 2.89052C20.2792 2.30715 19.9414 1.77745 19.5021 1.33872C19.0629 0.89998 18.5327 0.562877 17.9491 0.351143C16.8585 -0.000732459 15.866 -0.000732422 13.851 -0.000732422H7.79975C5.801 -0.000732422 4.79162 -0.000732459 3.71787 0.331143C3.13317 0.544543 2.60243 0.883678 2.16311 1.32461C1.7238 1.76555 1.38662 2.29753 1.17537 2.88302C0.833496 3.96677 0.833496 4.96614 0.833496 6.96489V13.023C0.833496 15.0318 0.833496 16.0243 1.16537 17.108C1.37782 17.6914 1.71558 18.2211 2.15485 18.6598C2.59413 19.0986 3.12424 19.4357 3.70787 19.6474C4.79162 19.9893 5.791 19.9893 7.79287 19.9893H13.8572C15.866 19.9893 16.8654 19.9893 17.9422 19.6574C18.5277 19.445 19.0595 19.1067 19.4999 18.6663C19.9403 18.2259 20.2786 17.6941 20.491 17.1086C20.8329 16.0249 20.8329 15.0255 20.8329 13.0236V6.98177C20.8329 4.97302 20.8329 3.97364 20.491 2.88989L20.4916 2.89052ZM15.3516 6.75114L14.5735 7.52614C14.4976 7.59527 14.3989 7.63411 14.2962 7.63526C14.1936 7.63641 14.0941 7.5998 14.0166 7.53239C13.2649 6.90106 12.3157 6.55318 11.3341 6.54927C10.5235 6.54927 9.71599 6.81614 9.71599 7.55864C9.71599 8.30739 10.5816 8.55802 11.581 8.93239C13.3322 9.51864 14.781 10.2505 14.781 11.9661C14.781 13.8349 13.3322 15.1174 10.966 15.2574L10.7479 16.2599C10.7289 16.3511 10.6791 16.433 10.6068 16.4917C10.5345 16.5504 10.4441 16.5825 10.351 16.5824H8.85662L8.78162 16.5761C8.67524 16.5518 8.58264 16.4867 8.52365 16.3949C8.46465 16.3031 8.44396 16.1918 8.466 16.0849L8.70037 15.0268C7.80157 14.8012 6.97485 14.3508 6.29787 13.718V13.708C6.22284 13.6329 6.18069 13.5311 6.18069 13.4249C6.18069 13.3187 6.22284 13.2169 6.29787 13.1418L7.131 12.3343C7.20722 12.2638 7.3072 12.2247 7.411 12.2247C7.51479 12.2247 7.61477 12.2638 7.691 12.3343C8.45397 13.0545 9.46753 13.449 10.5166 13.4343C11.6004 13.4343 12.3235 12.9755 12.3235 12.2493C12.3235 11.523 11.591 11.3343 10.2079 10.8168C8.73975 10.2924 7.34975 9.55052 7.34975 7.81552C7.34975 5.80052 9.02287 4.81739 11.0085 4.72614L11.2166 3.70052C11.2358 3.60904 11.2864 3.52714 11.3595 3.46895C11.4326 3.41075 11.5238 3.37992 11.6172 3.38177H13.0985L13.1829 3.39177C13.2344 3.40254 13.2833 3.42339 13.3268 3.45312C13.3703 3.48285 13.4075 3.52087 13.4362 3.565C13.465 3.60914 13.4847 3.65851 13.4943 3.7103C13.5039 3.76208 13.5032 3.81526 13.4922 3.86677L13.2679 5.00927C14.0234 5.25883 14.724 5.65114 15.3316 6.16489L15.351 6.18427C15.5072 6.35052 15.5072 6.60114 15.351 6.75052L15.3516 6.75114Z" />
</symbol><symbol width="21" height="20" id="profile">
<path d="M7.16667 7.33333C7.16667 5.49238 8.65905 4 10.5 4C12.3409 4 13.8333 5.49238 13.8333 7.33333C13.8333 9.17428 12.3409 10.6667 10.5 10.6667C8.65905 10.6667 7.16667 9.17428 7.16667 7.33333Z" />
<path fill-rule="evenodd" clip-rule="evenodd" d="M10.5 0C4.97715 0 0.5 4.47715 0.5 10C0.5 15.5228 4.97715 20 10.5 20C16.0228 20 20.5 15.5228 20.5 10C20.5 4.47715 16.0228 0 10.5 0ZM1.83333 10C1.83333 5.21353 5.71353 1.33333 10.5 1.33333C15.2865 1.33333 19.1667 5.21353 19.1667 10C19.1667 12.4661 18.1367 14.6916 16.4834 16.2698C16.2821 13.8781 14.277 12 11.8333 12H9.16667C6.72298 12 4.71794 13.8781 4.51662 16.2698C2.86334 14.6916 1.83333 12.4661 1.83333 10Z"/>
</symbol><symbol id="telegram">
<path d="M16.2208 0.0974721L1.44583 5.79497C0.437498 6.19997 0.443331 6.76247 1.26083 7.0133L5.05416 8.19664L13.8308 2.65914C14.2458 2.40664 14.625 2.54247 14.3133 2.81914L7.2025 9.23664H7.20083L7.2025 9.23747L6.94083 13.1475C7.32416 13.1475 7.49333 12.9716 7.70833 12.7641L9.55083 10.9725L13.3833 13.8033C14.09 14.1925 14.5975 13.9925 14.7733 13.1491L17.2892 1.29247C17.5467 0.259972 16.895 -0.207528 16.2208 0.0974721Z"/>
</symbol><symbol id="logo">
<path d="M19.1454 35.3648C21.8512 35.3648 24.1031 36.0676 25.901 37.4733C27.6989 38.8968 28.8026 40.8363 29.2121 43.2918L22.857 45C22.7858 43.879 22.3051 42.9804 21.4151 42.3043C20.525 41.6459 19.3857 41.3167 17.9972 41.3167H8.41115C5.93676 41.3167 3.9341 40.6584 2.40319 39.3416C0.872267 38.0427 0.106808 36.3345 0.106808 34.2171C0.106808 32.8292 0.436134 31.5302 1.09478 30.3203C1.75344 29.0925 2.6435 28.1495 3.76499 27.4911C1.255 25.1601 0 22.2509 0 18.7633C0 15.2936 1.2372 12.3932 3.71159 10.0623C6.18598 7.73132 9.26562 6.56584 12.9505 6.56584C15.2291 6.56584 17.3474 7.05516 19.3056 8.03381C19.6616 6.53915 20.4449 5.36477 21.6554 4.51068C22.8837 3.65658 24.379 3.22954 26.1413 3.22954H28.3843V8.91459H26.4617C25.6073 8.91459 24.8863 9.13701 24.2989 9.58185C23.7292 10.0089 23.4088 10.5872 23.3376 11.3167C25.0643 13.4697 25.9277 15.952 25.9277 18.7633C25.9277 22.2153 24.6816 25.1068 22.1894 27.4377C19.6972 29.7687 16.6176 30.9342 12.9505 30.9342C11.0458 30.9342 9.31902 30.6317 7.7703 30.0267C6.77342 30.6851 6.27498 31.5747 6.27498 32.6957C6.27498 33.4786 6.57761 34.1192 7.18285 34.6174C7.7881 35.1157 8.58026 35.3648 9.55934 35.3648H19.1454ZM12.9505 12.3577C11.0458 12.3577 9.45253 12.9715 8.17083 14.1993C6.90693 15.4093 6.27498 16.9306 6.27498 18.7633C6.27498 20.5783 6.90693 22.0996 8.17083 23.3274C9.45253 24.5374 11.0458 25.1423 12.9505 25.1423C14.8374 25.1423 16.4129 24.5285 17.6768 23.3007C18.9407 22.073 19.5726 20.5605 19.5726 18.7633C19.5726 16.9306 18.9407 15.4093 17.6768 14.1993C16.4129 12.9715 14.8374 12.3577 12.9505 12.3577Z" fill="white"/>
<path d="M53.9382 7.2331H60.0796V35.0979H53.9382V31.0943C51.4816 34.2082 48.2239 35.7651 44.1652 35.7651C41.584 35.7651 39.2431 35.1335 37.1426 33.8701C35.042 32.589 33.3954 30.8363 32.2027 28.6121C31.0278 26.3879 30.4404 23.9057 30.4404 21.1655C30.4404 18.4253 31.0278 15.9431 32.2027 13.7189C33.3954 11.4947 35.042 9.75089 37.1426 8.48754C39.2431 7.20641 41.584 6.56584 44.1652 6.56584C48.2417 6.56584 51.4994 8.11388 53.9382 11.21V7.2331ZM45.3668 29.8399C47.8234 29.8399 49.8616 29.0125 51.4816 27.3576C53.1193 25.6851 53.9382 23.621 53.9382 21.1655C53.9382 18.6922 53.1193 16.6281 51.4816 14.9733C49.8616 13.3007 47.8234 12.4644 45.3668 12.4644C42.8924 12.4644 40.8275 13.3007 39.1719 14.9733C37.5342 16.6281 36.7153 18.6922 36.7153 21.1655C36.7153 23.621 37.5342 25.6851 39.1719 27.3576C40.8275 29.0125 42.8924 29.8399 45.3668 29.8399Z" fill="white"/>
<path d="M82.1889 6.77936H83.2303V13.0783H82.1889C79.4831 13.0783 77.3559 13.8434 75.8072 15.3737C74.2762 16.8861 73.5108 18.9413 73.5108 21.5391V35.0979H67.3693V7.2331H73.5108V11.3167C75.7359 8.29181 78.6287 6.77936 82.1889 6.77936Z" fill="white"/>
<path d="M108.731 7.2331H114.872V35.0979H108.731V31.0943C106.274 34.2082 103.017 35.7651 98.9578 35.7651C96.3766 35.7651 94.0358 35.1335 91.9352 33.8701C89.8346 32.589 88.188 30.8363 86.9953 28.6121C85.8204 26.3879 85.233 23.9057 85.233 21.1655C85.233 18.4253 85.8204 15.9431 86.9953 13.7189C88.188 11.4947 89.8346 9.75089 91.9352 8.48754C94.0358 7.20641 96.3766 6.56584 98.9578 6.56584C103.034 6.56584 106.292 8.11388 108.731 11.21V7.2331ZM100.159 29.8399C102.616 29.8399 104.654 29.0125 106.274 27.3576C107.912 25.6851 108.731 23.621 108.731 21.1655C108.731 18.6922 107.912 16.6281 106.274 14.9733C104.654 13.3007 102.616 12.4644 100.159 12.4644C97.685 12.4644 95.6201 13.3007 93.9646 14.9733C92.3268 16.6281 91.508 18.6922 91.508 21.1655C91.508 23.621 92.3268 25.6851 93.9646 27.3576C95.6201 29.0125 97.685 29.8399 100.159 29.8399Z" fill="white"/>
<path d="M137.703 6.56584C141.014 6.56584 143.675 7.57117 145.686 9.58185C147.716 11.5925 148.73 14.2527 148.73 17.5623V35.0979H142.616V19.5641C142.616 17.4288 141.984 15.7117 140.72 14.4128C139.456 13.1139 137.774 12.4644 135.673 12.4644C133.466 12.4644 131.686 13.1228 130.333 14.4395C128.98 15.7562 128.303 17.5 128.303 19.6708V35.0979H122.162V7.2331H128.303V10.8363C130.6 7.98932 133.733 6.56584 137.703 6.56584Z" fill="white"/>
<path d="M171 12.7847H163.123V25.9698C163.123 27.2509 163.47 28.2206 164.164 28.879C164.876 29.5196 165.882 29.8399 167.182 29.8399C168.41 29.8399 169.683 29.5196 171 28.879V34.6174C169.487 35.3826 167.787 35.7651 165.9 35.7651C162.963 35.7651 160.746 34.9911 159.251 33.4431C157.756 31.895 157.008 29.7331 157.008 26.9573V12.7847H152.282V7.2331H157.008V0H163.123V7.2331H171V12.7847Z" fill="white"/>
</symbol><symbol width="24" height="25" id="balance">
<path d="M21 6.49998H2.25V5.74998L18.75 4.42998V5.74998H21V3.49998C21 1.84998 19.6635 0.691979 18.0315 0.924479L2.97 3.07548C1.3365 3.30948 0 4.84998 0 6.49998V21.5C0 22.2956 0.31607 23.0587 0.87868 23.6213C1.44129 24.1839 2.20435 24.5 3 24.5H21C21.7956 24.5 22.5587 24.1839 23.1213 23.6213C23.6839 23.0587 24 22.2956 24 21.5V9.49998C24 8.70433 23.6839 7.94127 23.1213 7.37866C22.5587 6.81605 21.7956 6.49998 21 6.49998ZM18.75 17.009C18.4544 17.0089 18.1618 16.9506 17.8887 16.8374C17.6157 16.7242 17.3676 16.5583 17.1587 16.3492C16.9498 16.1401 16.7841 15.892 16.671 15.6189C16.558 15.3457 16.4999 15.0531 16.5 14.7575C16.5001 14.4619 16.5584 14.1692 16.6716 13.8962C16.7848 13.6232 16.9507 13.3751 17.1598 13.1662C17.3688 12.9572 17.617 12.7915 17.8901 12.6785C18.1632 12.5655 18.4559 12.5074 18.7515 12.5075C19.3484 12.5077 19.9208 12.745 20.3428 13.1672C20.7648 13.5895 21.0017 14.162 21.0015 14.759C21.0013 15.3559 20.764 15.9283 20.3417 16.3503C19.9195 16.7722 19.3469 17.0092 18.75 17.009Z" fill="#B081EB"/>
</symbol><symbol width="17" height="18" id="add">
<path d="M8.50019 2.30005L13.3002 7.10005M8.50019 2.30005L3.7002 7.10005M8.50019 2.30005V14.9M0.700195 16.7H16.3002" stroke="white" stroke-width="2"/>
</symbol><symbol width="14" height="14" id="time">
<path d="M7.00039 7.00002H6.50039C6.50039 7.13263 6.55307 7.25981 6.64684 7.35358L7.00039 7.00002ZM7.00039 12.1C4.18374 12.1 1.90039 9.81668 1.90039 7.00002H0.900391C0.900391 10.369 3.63145 13.1 7.00039 13.1V12.1ZM12.1004 7.00002C12.1004 9.81668 9.81704 12.1 7.00039 12.1V13.1C10.3693 13.1 13.1004 10.369 13.1004 7.00002H12.1004ZM7.00039 1.90002C9.81704 1.90002 12.1004 4.18337 12.1004 7.00002H13.1004C13.1004 3.63109 10.3693 0.900024 7.00039 0.900024V1.90002ZM7.00039 0.900024C3.63145 0.900024 0.900391 3.63109 0.900391 7.00002H1.90039C1.90039 4.18337 4.18374 1.90002 7.00039 1.90002V0.900024ZM6.50039 3.40002V7.00002H7.50039V3.40002H6.50039ZM6.64684 7.35358L9.04684 9.75358L9.75394 9.04647L7.35394 6.64647L6.64684 7.35358Z" fill="white"/>
</symbol><symbol id="money">
<path d="M9.80039 7.4H11.0004V6.2M9.80039 2.6H11.0004V3.8M4.20039 2.6H3.00039V3.8M3.00039 6.2V7.4H4.20039M7.00039 6.6C6.11674 6.6 5.40039 5.88366 5.40039 5C5.40039 4.11634 6.11674 3.4 7.00039 3.4C7.88405 3.4 8.60039 4.11634 8.60039 5C8.60039 5.88366 7.88405 6.6 7.00039 6.6ZM2.20039 1H11.8004C12.2422 1 12.6004 1.35817 12.6004 1.8V8.2C12.6004 8.64183 12.2422 9 11.8004 9H2.20039C1.75856 9 1.40039 8.64183 1.40039 8.2V1.8C1.40039 1.35817 1.75856 1 2.20039 1Z"/>
</symbol><symbol width="14" height="10" id="nice">
<path fill-rule="evenodd" clip-rule="evenodd" d="M12.7657 1.40004L5.40006 8.76572L1.23438 4.60004L1.80006 4.03435L5.40006 7.63435L12.2001 0.834351L12.7657 1.40004Z" stroke-linecap="square"/>
</symbol><symbol width="20" height="20" id="inform" >
<path fill-rule="evenodd" clip-rule="evenodd" d="M20 10C20 15.5228 15.5228 20 10 20C4.47715 20 0 15.5228 0 10C0 4.47715 4.47715 0 10 0C15.5228 0 20 4.47715 20 10ZM9.33333 6.66665V5.31999H10.6667V6.66665H9.33333ZM10.6667 9.33332V13.3333H12V14.6667H8V13.3333H9.33333V10.6667H8V9.33332H10.6667Z" fill="white"/>
</symbol><symbol width="16" height="17" id="chart" >
<path d="M0 15.4667H16M5.86667 12.8V6.4M10.1333 12.8V3.2M14.4 12.8V0M1.6 9.6V12.8" stroke="white" stroke-width="2"/>
</symbol><symbol width="18" height="18" id="date">
<path fill-rule="evenodd" clip-rule="evenodd" d="M14.4 2.4H16.2C17.1941 2.4 18 3.20589 18 4.2V16.2C18 17.1941 17.1941 18 16.2 18H1.8C0.805888 18 0 17.1941 0 16.2V4.2C0 3.20589 0.805888 2.4 1.8 2.4H3.6V0H4.8V2.4H13.2V0H14.4V2.4ZM7.2 9.6H3.6V8.4H7.2V9.6ZM14.4 8.4H10.8V9.6H14.4V8.4ZM7.2 13.2H3.6V12H7.2V13.2ZM10.8 13.2H14.4V12H10.8V13.2Z" fill="white"/>
</symbol><symbol width="18" height="18" id="circle-part">
<path d="M7.8 0H7.2V10.8H18V10.2C18 4.5667 13.4333 0 7.8 0Z" fill="white"/>
<path d="M15.3913 12H6V2.60872C2.55996 3.42131 0 6.5117 0 10.2C0 14.5078 3.49218 18 7.8 18C11.4883 18 14.5787 15.44 15.3913 12Z" fill="white"/>
</symbol><symbol width="16" height="16" id="scan">
<path d="M12.2001 8.93334H8.93346V12.2M14.0668 8.93334H15.0001M12.2001 14.5333H8.4668M11.2668 11.7333H14.5335V15M3.80013 4.26667H4.73346M11.2668 4.26667H12.2001M3.80013 11.7333H4.73346M2.40013 1.46667H6.13346C6.64893 1.46667 7.0668 1.88454 7.0668 2.40001V6.13334C7.0668 6.64881 6.64893 7.06667 6.13346 7.06667H2.40013C1.88466 7.06667 1.4668 6.64881 1.4668 6.13334V2.40001C1.4668 1.88454 1.88466 1.46667 2.40013 1.46667ZM9.8668 1.46667H13.6001C14.1156 1.46667 14.5335 1.88454 14.5335 2.40001V6.13334C14.5335 6.64881 14.1156 7.06667 13.6001 7.06667H9.8668C9.35133 7.06667 8.93346 6.64881 8.93346 6.13334V2.40001C8.93346 1.88454 9.35133 1.46667 9.8668 1.46667ZM2.40013 8.93334H6.13346C6.64893 8.93334 7.0668 9.35121 7.0668 9.86667V13.6C7.0668 14.1155 6.64893 14.5333 6.13346 14.5333H2.40013C1.88466 14.5333 1.4668 14.1155 1.4668 13.6V9.86667C1.4668 9.35121 1.88466 8.93334 2.40013 8.93334Z" stroke="white"/>
</symbol><symbol width="20" height="21" id="upload">
<path fill-rule="evenodd" clip-rule="evenodd" d="M10.7452 1.36482C11.6191 0.49094 12.8043 0 14.0402 0C16.6137 0 18.7 2.08626 18.7 4.6598C18.7 5.89565 18.2091 7.08089 17.3352 7.95477L9.27487 16.0151C8.77229 16.5177 8.09065 16.8 7.3799 16.8C5.89983 16.8 4.7 15.6002 4.7 14.1201C4.7 13.4093 4.98235 12.7277 5.48492 12.2251L13.305 4.40503L14.295 5.39497L6.47487 13.2151C6.23485 13.4551 6.1 13.7807 6.1 14.1201C6.1 14.827 6.67303 15.4 7.3799 15.4C7.71935 15.4 8.0449 15.2652 8.28492 15.0251L16.3452 6.96482C16.9566 6.35349 17.3 5.52435 17.3 4.6598C17.3 2.85946 15.8405 1.4 14.0402 1.4C13.1757 1.4 12.3465 1.74344 11.7352 2.35477L3.43467 10.6553C2.45204 11.6379 1.9 12.9706 1.9 14.3603C1.9 17.2541 4.24589 19.6 7.1397 19.6C8.52935 19.6 9.86209 19.048 10.8447 18.0653L18.905 10.005L19.895 10.995L11.8347 19.0553C10.5895 20.3005 8.90065 21 7.1397 21C3.47269 21 0.5 18.0273 0.5 14.3603C0.5 12.5993 1.19954 10.9105 2.44472 9.66533L10.7452 1.36482Z" fill="#B081EB"/>
</symbol><symbol width="18" height="18" id="time_fill">
<path fill-rule="evenodd" clip-rule="evenodd" d="M0 9C0 4.02944 4.02944 0 9 0C13.9706 0 18 4.02944 18 9C18 13.9706 13.9706 18 9 18C4.02944 18 0 13.9706 0 9ZM8.4 8.9999V3.6H9.6V8.75147L13.0243 12.1757L12.1757 13.0243L8.57574 9.42426C8.45858 9.30711 8.4 9.15345 8.4 8.9999Z" fill="white"/>
</symbol><symbol width="20" height="19" id="plus">
<path d="M9.99961 5.29998V13.7M5.79961 9.49998H14.1996M9.99961 17.9C5.36042 17.9 1.59961 14.1392 1.59961 9.49998C1.59961 4.86078 5.36042 1.09998 9.99961 1.09998C14.6388 1.09998 18.3996 4.86078 18.3996 9.49998C18.3996 14.1392 14.6388 17.9 9.99961 17.9Z" stroke="white" stroke-width="2"/>
</symbol><symbol width="17" height="16" id="star">
<path d="M8.97828 0.330626C8.88843 0.148579 8.70303 0.0333252 8.50002 0.0333252C8.29701 0.0333252 8.1116 0.148579 8.02176 0.330626L5.83842 4.75461L0.956704 5.46352C0.755793 5.4927 0.588871 5.63341 0.526126 5.82649C0.463382 6.01957 0.515697 6.23152 0.661075 6.37323L4.19362 9.81663L3.35947 14.6793C3.32515 14.8794 3.4074 15.0816 3.57164 15.201C3.73588 15.3203 3.95363 15.336 4.13332 15.2415L8.50002 12.9457L12.8667 15.2415C13.0464 15.336 13.2641 15.3203 13.4284 15.201C13.5926 15.0816 13.6749 14.8794 13.6406 14.6793L12.8064 9.81663L16.339 6.37323C16.4843 6.23152 16.5367 6.01957 16.4739 5.82649C16.4112 5.63341 16.2442 5.4927 16.0433 5.46352L11.1616 4.75461L8.97828 0.330626Z"/>
</symbol><symbol width="16" height="16" id="dislike">
<path d="M1.06667 10.6667V0H0V10.6667H1.06667Z"/>
<path d="M5.86667 0C4.39391 0 3.2 1.19391 3.2 2.66667V10.2886L6.16083 14.9414C6.79232 15.9337 8.09946 16.2423 9.10808 15.6371C10.0804 15.0537 10.4397 13.8201 9.93255 12.8059L8.86295 10.6667H13.3333C14.8061 10.6667 16 9.47276 16 8V4.62222L13.3333 1.06667C12.8297 0.395185 12.0394 0 11.2 0H5.86667Z"/>
</symbol><symbol width="16" height="16" id="like">
<path d="M9.93255 3.19413C10.4397 2.17992 10.0804 0.946268 9.10808 0.362869C8.09946 -0.242303 6.79232 0.0662718 6.16083 1.05862L3.2 5.71135V13.3333C3.2 14.8061 4.39391 16 5.86667 16H11.2C12.0394 16 12.8297 15.6048 13.3333 14.9333L16 11.3778V7.99999C16 6.52723 14.8061 5.33332 13.3333 5.33332H8.86295L9.93255 3.19413Z"/>
<path d="M0 5.33332V16H1.06667V5.33332H0Z"/>
</symbol><symbol width="17" height="17" id="mail">
<path fill-rule="evenodd" clip-rule="evenodd" d="M5.83333 3.16667V3.7H2.1C1.21634 3.7 0.5 4.41634 0.5 5.3V14.9C0.5 15.7837 1.21634 16.5 2.1 16.5H14.9C15.7837 16.5 16.5 15.7837 16.5 14.9V5.3C16.5 4.41634 15.7837 3.7 14.9 3.7H11.1667V3.16667C11.1667 1.69391 9.97276 0.5 8.5 0.5C7.02724 0.5 5.83333 1.69391 5.83333 3.16667ZM8.5 1.56667C7.61634 1.56667 6.9 2.28301 6.9 3.16667V3.7H10.1V3.16667C10.1 2.28301 9.38366 1.56667 8.5 1.56667ZM1.20495 8.35856C5.32488 12.1616 11.6752 12.1616 15.7951 8.35856L15.0716 7.57477C11.3603 11.0006 5.63978 11.0006 1.92845 7.57477L1.20495 8.35856Z" />
</symbol><symbol width="14" height="14" id="close" >
<path d="M1.40039 1.40002L12.6004 12.6M1.40039 12.6L12.6004 1.40002" stroke-width="2"/>
</symbol><symbol width="13" height="10" id="repeat">
<path d="M4.92121 7.89994L0.353213 4.61994C0.245619 4.55636 0.156455 4.46583 0.0945155 4.35728C0.032576 4.24873 0 4.12592 0 4.00094C0 3.87596 0.032576 3.75314 0.0945155 3.6446C0.156455 3.53605 0.245619 3.44552 0.353213 3.38194L4.92121 0.0999394C5.0301 0.0358912 5.154 0.00179412 5.28033 0.00110916C5.40666 0.000424201 5.53092 0.0331757 5.6405 0.0960393C5.75008 0.158903 5.84108 0.249641 5.90426 0.359041C5.96743 0.468441 6.00054 0.592609 6.00021 0.718939V1.99994C7.50021 1.99994 12.0002 1.99994 13.0002 9.99994C10.5002 5.49994 6.00021 5.99994 6.00021 5.99994V7.28094C6.00021 7.84094 5.39421 8.17894 4.92121 7.90094V7.89994Z" fill="#B081EB"/>
</symbol><symbol width="14" height="18" id="micro">
<path d="M4.00039 3C4.00039 1.34315 5.34354 0 7.00039 0C8.65724 0 10.0004 1.34315 10.0004 3V7.8C10.0004 9.45685 8.65724 10.8 7.00039 10.8C5.34354 10.8 4.00039 9.45685 4.00039 7.8V3Z" fill="white"/>
<path d="M0.400391 4.8V7.8C0.400391 11.2428 3.03649 14.07 6.40039 14.3731V16.8H4.00039V18H10.0004V16.8H7.60039V14.3731C10.9643 14.07 13.6004 11.2428 13.6004 7.8V4.8H12.4004V7.8C12.4004 10.7823 9.98273 13.2 7.00039 13.2C4.01805 13.2 1.60039 10.7823 1.60039 7.8V4.8H0.400391Z" fill="white"/>
</symbol><symbol width="24" height="24" id="send">
<path d="M23.9265 1.13568C23.888 1.21898 23.8345 1.29702 23.7658 1.36569L8.64121 16.4903L12.914 23.6116C13.0686 23.8692 13.3544 24.0185 13.6542 23.9982C13.9539 23.9778 14.217 23.7913 14.3353 23.5152L23.9265 1.13568Z" fill="white"/>
<path d="M7.50986 15.3589L0.38841 11.086C0.130799 10.9315 -0.0184993 10.6456 0.00184291 10.3459C0.0221852 10.0461 0.208739 9.78305 0.484871 9.66471L22.8688 0.0715922C22.7839 0.11021 22.7043 0.164451 22.6344 0.234315L7.50986 15.3589Z" fill="white"/>
</symbol>
</svg>